<?xml version="1.0" standalone="no"?>
<!DOCTYPE svg PUBLIC "-//W3C//DTD SVG 20010904//EN"
 "http://www.w3.org/TR/2001/REC-SVG-20010904/DTD/svg10.dtd">
<svg version="1.0" xmlns="http://www.w3.org/2000/svg"
 width="500.000000pt" height="500.000000pt" viewBox="0 0 500.000000 500.000000"
 preserveAspectRatio="xMidYMid meet">

<g transform="translate(0.000000,500.000000) scale(0.100000,-0.100000)"
fill="#000000" stroke="none">
<path d="M2207 3999 c-75 -39 -101 -174 -50 -261 22 -40 94 -78 143 -77 l35 1
-31 7 c-45 11 -54 19 -75 65 -25 55 -26 177 -1 226 9 19 28 40 42 47 l25 13
-25 -1 c-14 0 -42 -9 -63 -20z"/>
<path d="M2338 4007 c41 -23 55 -56 60 -138 6 -100 -2 -141 -35 -173 -23 -23
-23 -26 -7 -26 35 0 85 40 104 83 54 118 -14 268 -120 267 l-25 -1 23 -12z"/>
<path d="M2561 3908 c-12 -51 -32 -124 -43 -161 -12 -39 -17 -72 -12 -77 5 -4
23 -11 39 -14 30 -7 31 -5 42 41 39 176 68 266 87 271 14 4 8 9 -25 18 -24 8
-49 14 -54 14 -6 0 -21 -42 -34 -92z"/>
<path d="M2727 3950 c18 -11 35 -31 39 -46 11 -42 -2 -137 -25 -182 -27 -53
-63 -76 -115 -75 -34 0 -36 -1 -16 -7 109 -34 205 22 230 133 18 84 -18 158
-93 186 -45 17 -55 13 -20 -9z"/>
<path d="M1890 3950 l-25 -8 27 -1 c39 -1 78 -52 78 -102 0 -33 -4 -41 -32
-55 -30 -16 -31 -17 -11 -28 11 -6 42 -35 68 -63 50 -56 58 -59 101 -43 l26
10 -48 53 c-27 28 -57 57 -67 63 -15 8 -16 13 -7 19 6 4 19 23 27 42 17 41 3
97 -27 113 -22 12 -74 12 -110 0z"/>
<path d="M1783 3918 c-18 -6 -33 -14 -33 -17 0 -3 22 -76 48 -161 48 -154 49
-155 77 -153 44 3 49 15 30 73 -9 28 -18 56 -19 63 -1 7 -4 17 -7 22 -4 6 -17
49 -30 98 -13 48 -26 87 -29 86 -3 -1 -20 -6 -37 -11z"/>
<path d="M2915 3763 c-37 -65 -76 -132 -87 -150 l-19 -32 31 -16 c17 -9 35
-13 40 -10 5 3 22 28 37 56 23 41 32 49 53 47 25 -3 25 -5 25 -91 0 -85 1 -89
28 -109 15 -11 30 -18 32 -16 3 2 6 43 7 91 3 82 4 87 25 87 37 0 70 21 88 54
16 29 16 35 2 68 -11 26 -28 43 -59 59 l-43 21 23 -21 c41 -40 18 -128 -38
-146 -16 -5 -79 9 -99 22 -5 3 67 129 83 146 13 12 9 17 -24 36 l-38 21 -67
-117z"/>
<path d="M1455 3740 c-11 -5 -33 -20 -50 -34 l-30 -25 31 11 c43 16 81 3 104
-35 26 -41 25 -65 -2 -94 -18 -19 -19 -23 -5 -23 9 0 49 -15 90 -34 71 -32 75
-33 101 -17 14 8 25 20 23 25 -4 12 -127 76 -145 76 -10 0 -12 6 -7 18 22 48
18 81 -13 112 -31 30 -60 36 -97 20z"/>
<path d="M3385 3720 c-61 -22 -45 -32 42 -28 l59 3 -25 21 c-25 21 -27 21 -76
4z"/>
<path d="M1333 3651 c-18 -15 -33 -31 -33 -35 0 -15 194 -266 205 -266 6 0 21
10 33 23 l21 22 -99 130 c-55 72 -98 136 -95 143 6 16 5 16 -32 -17z"/>
<path d="M3283 3639 c-15 -18 -44 -51 -63 -73 -20 -23 -58 -67 -84 -99 l-49
-58 23 -24 c13 -14 27 -25 30 -25 9 0 220 247 220 258 0 5 -11 19 -24 31 l-24
23 -29 -33z"/>
<path d="M3344 3481 c-35 -15 -91 -80 -98 -113 -13 -64 0 -126 35 -168 l20
-25 -11 24 c-19 38 -7 115 24 155 51 68 155 110 206 84 37 -20 69 -74 76 -130
6 -44 8 -48 22 -35 20 20 10 55 -30 108 -58 75 -101 102 -166 106 -31 1 -67
-1 -78 -6z"/>
<path d="M1108 3415 c-10 -13 -18 -28 -18 -33 0 -9 88 -161 153 -265 l30 -48
23 22 c13 12 24 26 24 31 0 4 -17 36 -38 70 -21 35 -41 70 -45 78 -4 8 -27 47
-51 85 -38 60 -42 71 -28 77 13 5 11 7 -8 7 -15 0 -32 -9 -42 -24z"/>
<path d="M1218 3413 c7 -3 16 -2 19 1 4 3 -2 6 -13 5 -11 0 -14 -3 -6 -6z"/>
<path d="M1304 3363 c-26 -36 -40 -64 -19 -38 9 11 25 30 35 43 11 12 16 22
12 22 -5 0 -17 -12 -28 -27z"/>
<path d="M1375 3367 c17 -7 44 -20 62 -30 38 -20 43 -21 43 -4 0 7 -26 20 -58
30 -65 19 -92 21 -47 4z"/>
<path d="M3411 3201 c-70 -56 -71 -57 -90 -38 -11 10 -11 8 -1 -8 7 -12 27
-31 46 -43 l33 -22 60 48 c33 26 60 49 61 52 0 3 -10 18 -23 33 l-22 29 -64
-51z"/>
<path d="M3635 3166 c-107 -45 -151 -66 -168 -80 -26 -20 -44 -78 -38 -123 l4
-38 8 33 c9 44 23 53 162 108 66 26 121 53 124 61 8 19 -13 63 -29 62 -7 -1
-35 -11 -63 -23z"/>
<path d="M1456 3159 l-26 -20 0 -165 c0 -162 0 -165 25 -189 13 -14 30 -25 38
-25 11 0 15 -36 21 -177 11 -291 42 -434 126 -590 51 -94 100 -153 175 -210
82 -62 173 -106 280 -134 78 -20 113 -23 255 -23 136 0 181 4 254 22 256 64
416 220 496 487 39 127 60 308 60 513 0 88 3 112 14 112 7 0 25 9 40 21 l26
20 0 168 c0 162 -1 168 -23 189 l-23 22 -856 0 c-850 0 -855 0 -882 -21z
m1728 -55 c3 -9 6 -69 6 -134 0 -65 -3 -125 -6 -134 -6 -14 -90 -16 -850 -16
l-844 0 0 150 0 150 844 0 c760 0 844 -2 850 -16z m-84 -419 l0 -75 -762 2
-763 3 -3 73 -3 72 766 0 765 0 0 -75z m-1270 -188 c0 -69 -19 -206 -41 -290
-19 -78 -72 -207 -84 -207 -13 0 -68 138 -91 226 -12 51 -26 132 -29 180 -3
49 -8 99 -11 112 -4 22 -4 22 126 22 l130 0 0 -43z m937 -91 c16 -182 44 -295
102 -411 l48 -96 -50 -49 c-62 -61 -183 -122 -292 -147 -112 -25 -350 -25
-455 1 -116 28 -233 90 -312 164 l-67 64 31 61 c64 127 100 273 114 455 l7 92
431 0 432 0 11 -134z m333 121 c0 -55 -25 -247 -41 -315 -21 -90 -73 -224 -93
-241 -17 -14 -66 75 -95 175 -25 84 -51 255 -51 337 l0 57 140 0 c110 0 140
-3 140 -13z"/>
<path d="M1962 3080 c-102 -62 -62 -230 55 -230 l27 0 -22 16 c-70 49 -69 189
2 220 l31 13 -30 1 c-16 0 -45 -9 -63 -20z"/>
<path d="M2075 3088 c11 -6 23 -16 27 -22 10 -15 22 0 15 19 -4 8 -18 15 -34
15 -26 -1 -27 -1 -8 -12z"/>
<path d="M2230 3095 c-1 -3 -1 -58 -1 -122 l-1 -118 31 -3 31 -3 0 55 c0 73
18 73 55 1 25 -50 30 -55 61 -55 l34 0 -29 58 -29 57 24 28 c35 41 31 72 -13
96 -21 11 -163 16 -163 6z m118 -17 c7 -7 12 -28 12 -48 0 -42 -14 -60 -47
-60 -21 0 -23 4 -23 60 0 56 2 60 23 60 13 0 28 -5 35 -12z"/>
<path d="M2562 3084 c-12 -8 -22 -25 -22 -38 0 -28 26 -52 99 -91 45 -24 57
-36 59 -58 3 -21 -2 -29 -20 -36 -22 -10 -22 -10 5 -10 33 -1 77 38 77 69 0
27 -26 51 -104 95 -67 37 -86 68 -48 78 14 4 14 5 -3 6 -11 0 -31 -6 -43 -15z"/>
<path d="M2669 3088 c18 -5 44 -16 57 -25 23 -14 24 -14 24 5 0 22 -26 32 -80
31 l-35 -1 34 -10z"/>
<path d="M2540 2881 c0 -20 27 -31 75 -30 28 1 27 1 -12 16 -24 8 -43 19 -43
24 0 5 -4 9 -10 9 -5 0 -10 -8 -10 -19z"/>
<path d="M2086 2869 c-19 -19 -19 -19 7 -19 20 0 27 5 27 20 0 25 -9 25 -34
-1z"/>
<path d="M2213 2420 c-68 -28 -154 -119 -178 -190 -24 -71 -17 -188 14 -252
27 -56 90 -122 141 -148 87 -44 213 -44 299 0 151 76 219 270 149 421 -30 66
-89 129 -150 160 -63 33 -203 37 -275 9z m238 -57 c80 -31 159 -153 159 -243
0 -58 -31 -132 -77 -181 -164 -175 -456 -60 -456 179 0 196 189 320 374 245z"/>
<path d="M2281 2319 c-87 -26 -144 -105 -144 -199 0 -100 59 -176 155 -200
181 -46 326 163 220 315 -50 71 -151 108 -231 84z m126 -70 c114 -55 107 -219
-12 -264 -57 -22 -104 -14 -150 26 -64 56 -67 154 -8 211 54 51 104 59 170 27z"/>
<path d="M928 3117 c-77 -122 -76 -247 2 -247 28 0 40 8 161 108 62 51 104 55
128 11 14 -24 13 -31 -4 -69 -10 -23 -38 -59 -62 -79 -42 -37 -46 -51 -13 -51
16 0 69 80 89 133 6 16 11 50 11 76 0 62 -25 91 -80 91 -40 0 -42 -1 -170
-107 -60 -50 -96 -56 -106 -18 -9 35 30 109 77 147 28 23 36 34 27 40 -23 14
-33 9 -60 -35z"/>
<path d="M3661 2933 c-135 -58 -164 -63 -198 -32 l-26 24 17 -32 c20 -39 52
-62 98 -69 25 -5 62 6 151 41 64 26 117 48 117 50 0 22 -26 65 -38 64 -10 0
-64 -21 -121 -46z"/>
<path d="M3683 2785 c-89 -11 -165 -23 -168 -27 -4 -4 1 -64 10 -135 10 -77
15 -159 12 -208 -3 -44 -3 -67 0 -52 2 16 8 27 13 25 4 -2 62 -54 128 -116 66
-62 132 -122 146 -133 25 -20 26 -20 26 -1 0 11 2 41 5 68 3 28 2 39 -3 26 -7
-22 -18 -14 -156 115 -99 92 -143 139 -132 141 20 4 20 7 -4 58 -12 23 -23 65
-27 93 -5 45 -4 51 13 51 10 0 82 9 159 19 77 11 143 17 147 15 9 -6 9 19 -1
56 l-6 26 -162 -21z"/>
<path d="M816 2773 c-2 -10 -7 -47 -10 -83 l-6 -65 15 55 c9 30 22 65 30 77
19 29 19 33 -4 33 -11 0 -22 -8 -25 -17z"/>
<path d="M678 2742 c-1 -12 -2 -28 -2 -36 -1 -14 73 -80 81 -73 3 4 -59 113
-72 125 -3 3 -6 -4 -7 -16z"/>
<path d="M1120 2753 c1 -5 7 -35 14 -68 10 -42 14 -51 15 -30 1 17 4 47 7 68
6 33 4 37 -15 37 -11 0 -21 -3 -21 -7z"/>
<path d="M952 2670 c0 -19 2 -27 5 -17 2 9 2 25 0 35 -3 9 -5 1 -5 -18z"/>
<path d="M3712 2660 c0 -14 2 -19 5 -12 2 6 2 18 0 25 -3 6 -5 1 -5 -13z"/>
<path d="M3857 2628 c-3 -29 -8 -61 -12 -70 -6 -14 -2 -18 15 -18 21 0 21 3
15 68 -4 37 -9 68 -10 70 -1 1 -5 -21 -8 -50z"/>
<path d="M941 2606 c-1 -16 -7 -18 -58 -12 -32 4 -66 9 -75 12 -15 5 -18 -1
-18 -35 0 -29 5 -41 18 -45 31 -8 312 -39 317 -35 2 3 6 30 8 60 3 29 3 45 0
34 -4 -19 -8 -20 -93 -11 -78 8 -90 12 -93 30 -4 18 -4 18 -6 2z"/>
<path d="M3722 2590 c0 -19 2 -27 5 -17 2 9 2 25 0 35 -3 9 -5 1 -5 -18z"/>
<path d="M1082 2463 c-10 -4 -4 -15 19 -39 82 -84 -8 -204 -154 -204 -32 0
-71 7 -86 14 -31 17 -61 56 -62 83 0 12 -2 13 -6 5 -11 -29 20 -102 58 -136
57 -52 150 -60 219 -20 50 30 75 80 75 153 0 70 -21 152 -39 150 -6 0 -17 -3
-24 -6z"/>
<path d="M3843 2418 c4 -13 9 -54 14 -93 l7 -70 7 50 c4 28 8 69 8 93 1 36 -2
42 -20 42 -17 0 -20 -5 -16 -22z"/>
<path d="M790 2388 c0 -23 1 -39 3 -37 2 2 14 21 26 42 l23 37 -26 0 c-24 0
-26 -4 -26 -42z"/>
<path d="M3516 2252 c-5 -55 -5 -87 2 -94 13 -13 33 -2 26 15 -2 7 -8 46 -12
87 l-8 75 -8 -83z"/>
<path d="M912 2010 c-29 -27 -28 -62 4 -99 21 -26 33 -31 69 -31 27 0 47 6 56
16 20 24 15 105 -7 121 -28 20 -97 16 -122 -7z"/>
<path d="M3632 2014 c-31 -22 -30 -77 3 -109 17 -18 35 -25 62 -25 44 0 55 6
72 38 15 28 -2 97 -25 106 -29 11 -89 6 -112 -10z"/>
<path d="M1114 1755 l-27 -27 7 -122 c7 -115 6 -123 -14 -149 -39 -50 -102
-27 -130 47 -6 16 -11 55 -11 88 -1 48 -4 58 -16 54 -8 -3 -17 -6 -19 -6 -11
0 -2 -55 17 -106 13 -35 39 -75 68 -105 41 -43 53 -49 87 -49 81 0 101 48 90
215 -7 97 -6 105 14 125 46 46 110 -41 110 -151 0 -49 9 -59 38 -41 27 18 -52
182 -107 221 -48 35 -77 36 -107 6z"/>
<path d="M3413 1741 c-27 -17 -93 -99 -93 -116 0 -4 15 10 34 29 29 31 40 36
79 36 95 0 227 -97 227 -167 0 -31 -24 -93 -36 -93 -7 0 -254 140 -286 162
l-27 19 -21 -40 -20 -40 161 -91 c88 -50 162 -90 164 -88 2 2 24 42 49 91 52
99 57 139 26 201 -48 95 -179 144 -257 97z"/>
<path d="M1242 1377 c-67 -67 -122 -126 -122 -132 0 -5 12 -21 26 -36 l26 -27
71 75 72 75 63 -63 c34 -34 62 -58 62 -53 0 4 -25 31 -55 60 -30 29 -55 57
-55 61 0 5 23 31 51 58 l51 50 38 -44 c21 -25 46 -62 56 -83 18 -41 31 -48 41
-22 4 11 -23 45 -88 110 -51 52 -98 94 -104 94 -6 0 -65 -55 -133 -123z"/>
<path d="M3130 1395 l-24 -25 31 -78 c16 -42 50 -125 74 -185 l43 -107 30 29
30 30 -32 81 c-18 45 -30 86 -26 91 3 5 1 9 -4 9 -10 0 -75 145 -75 168 0 20
-22 14 -47 -13z"/>
<path d="M3190 1415 c0 -7 61 -37 66 -33 2 3 -12 12 -31 21 -19 9 -35 15 -35
12z"/>
<path d="M3318 1353 c17 -9 32 -20 32 -24 0 -4 -12 -18 -27 -31 -16 -13 -35
-32 -42 -43 -8 -11 8 2 37 30 l52 49 -32 18 c-18 9 -37 17 -43 17 -5 0 5 -8
23 -16z"/>
<path d="M3450 1281 c50 -36 70 -42 70 -22 0 7 -104 61 -118 61 -4 0 18 -18
48 -39z"/>
<path d="M1609 1220 c-48 -14 -78 -41 -104 -93 -44 -89 -25 -171 56 -240 38
-33 143 -77 183 -77 11 0 92 148 85 154 -2 2 -18 11 -36 20 l-32 16 -25 -42
c-13 -24 -32 -60 -42 -81 -16 -33 -22 -37 -44 -32 -14 3 -42 23 -62 45 -33 34
-38 45 -38 87 0 52 42 155 76 185 30 27 86 47 119 42 25 -3 23 -1 -10 10 -45
16 -87 18 -126 6z"/>
<path d="M2880 1206 c-19 -7 -65 -28 -102 -47 l-67 -34 81 -160 c44 -88 82
-162 84 -164 5 -6 99 38 150 71 83 52 105 149 56 245 -46 88 -118 120 -202 89z
m73 -54 c45 -42 89 -138 90 -194 1 -51 -16 -79 -65 -104 l-26 -14 -49 93 c-94
177 -115 218 -111 222 2 2 19 11 38 20 45 19 87 12 123 -23z"/>
<path d="M1813 1161 c21 -23 43 -53 49 -66 9 -19 14 -22 25 -14 22 19 15 33
-34 70 -73 55 -82 57 -40 10z"/>
<path d="M1190 1172 c0 -5 30 -37 66 -72 60 -58 66 -62 81 -47 9 9 15 18 12
19 -2 2 -24 13 -49 26 -25 12 -60 36 -77 53 -18 16 -33 26 -33 21z"/>
<path d="M1902 1003 c-12 -65 -22 -133 -22 -151 0 -47 28 -90 72 -113 48 -24
57 -24 30 1 -12 11 -24 31 -27 43 -3 12 8 89 23 170 16 81 26 149 23 151 -3 2
-22 6 -41 10 l-36 6 -22 -117z"/>
<path d="M2624 1107 l-31 -12 50 -175 c27 -96 50 -176 51 -177 1 -1 19 3 39 9
44 14 46 -2 -17 216 -23 80 -46 147 -51 148 -6 1 -24 -3 -41 -9z"/>
<path d="M2150 1013 c-31 -161 -52 -248 -63 -261 -7 -8 -25 -21 -42 -28 l-30
-13 32 -1 c60 0 110 28 132 74 19 38 68 262 60 271 -2 2 -20 6 -41 10 l-36 7
-12 -59z"/>
<path d="M2298 1063 c-28 -3 -38 -9 -38 -21 0 -9 7 -89 15 -177 8 -88 15 -163
15 -167 0 -5 18 -8 41 -8 l41 0 -6 93 c-4 50 -10 130 -15 177 -4 47 -6 88 -4
93 8 14 81 7 103 -11 26 -21 38 -98 21 -130 -7 -12 -29 -26 -54 -33 -38 -11
-40 -13 -18 -18 17 -5 39 -30 69 -79 42 -70 45 -72 83 -72 21 0 39 4 39 10 0
13 -80 143 -93 152 -6 4 2 17 21 33 51 43 52 114 3 152 -15 12 -136 15 -223 6z"/>
</g>
</svg>
